<svg width="238" height="47" viewBox="0 0 238 47" fill="none" xmlns="http://www.w3.org/2000/svg">
<path d="M28.1768 44.6845L34.4965 28.3657L40.8162 12.0468C41.2063 11.0229 40.6341 10.0502 39.7109 9.4486C36.1999 7.15756 32.819 4.95611 29.126 3.24103C25.433 1.52595 21.441 0.322836 16.6947 0.00285875C13.8209 -0.189128 12.6896 9.32061 12.3775 18.9583C12.0654 28.5961 12.5986 38.349 13.0537 38.6562C18.7752 42.4959 18.5152 42.1119 23.1964 44.9277C24.2887 45.5933 26.5773 47.1036 28.1768 44.6845Z" fill="url(#paint0_linear_1094_2160)"/>
<path d="M36.0459 7.1035C32.691 5.15804 28.842 2.55982 24.4208 1.66388C19.9866 0.767945 15.7085 0.575958 11.5734 0.934333C10.6761 1.01113 9.98694 1.90707 9.8309 3.14858C9.32376 7.1163 10.065 13.4775 10.4421 19.877C10.8842 27.4285 12.3666 37.3222 13.1078 38.6533C16.2286 40.7012 16.0206 40.6116 19.6095 42.877C21.43 44.0289 22.7954 44.4641 24.1607 42.749C24.2258 42.6594 24.3688 42.4034 24.4468 42.301L30.7015 26.1486L37.1512 9.70172C37.5413 8.69059 36.9952 7.65386 36.0459 7.1035Z" fill="url(#paint1_linear_1094_2160)"/>
<path d="M32.184 4.88927C29.0111 3.27658 24.6679 1.06233 19.4796 0.51197C14.4082 -0.0383916 9.92199 0.985537 6.41105 1.85588C5.44879 2.09906 4.83763 3.14859 4.98066 4.26211C5.61784 9.02338 7.3473 14.8214 8.43959 20.7858C9.44086 26.2382 11.3264 31.7674 11.8075 34.3016C12.5877 38.3973 13.602 38.8581 16.0986 40.7012C17.1389 41.4691 19.2455 42.0451 20.4158 40.394C20.4548 40.3428 20.6109 39.9844 20.6499 39.9332L26.8395 23.9343L33.2893 7.48748C33.6794 6.46355 33.1722 5.38843 32.184 4.88927Z" fill="url(#paint2_linear_1094_2160)" fill-opacity="0.6"/>
<path d="M16.6567 38.0269L22.9764 21.708L29.2961 5.38913C29.6862 4.3652 29.2051 3.22608 28.1908 2.79091C25.2 1.4982 20.4668 -0.0376916 14.5372 0.000705722C8.77662 0.0391031 4.18638 1.5238 1.23459 2.79091C0.220317 3.23888 -0.260812 4.378 0.142296 5.40193C2.24886 10.8416 4.35543 16.2812 6.46199 21.7208C8.56856 27.1604 10.6751 32.6001 12.7817 38.0397C13.4579 39.7932 15.9806 39.7932 16.6567 38.0269Z" fill="url(#paint3_linear_1094_2160)"/>
<path d="M55.4217 40.5142H71.3061C73.6851 40.5142 75.2231 39.2024 75.2231 36.919C75.2231 34.6356 73.6371 33.3239 71.3061 33.3239H59.8193V26.1822H70.7774C72.9642 26.1822 74.3339 24.9676 74.3339 22.9028C74.3339 20.8381 72.9161 19.6235 70.7774 19.6235H59.8193V12.6518H71.3061C73.6371 12.6518 75.2231 11.3401 75.2231 9.05668C75.2231 6.77328 73.6851 5.46154 71.3061 5.46154H55.4217C52.6341 5.46154 51 7.16194 51 10.1255V35.8502C51 38.8138 52.6341 40.5142 55.4217 40.5142Z" fill="#35353A"/>
<path d="M83.0251 40.5142H102.538C104.869 40.5142 106.455 39.2024 106.455 36.919C106.455 34.6356 104.917 33.3239 102.538 33.3239H89.0568V33.1296L104.172 12.8219C104.845 11.8988 105.47 11 105.47 9.61539C105.47 7.06478 103.764 5.46154 101.048 5.46154H82.3763C79.9972 5.46154 78.4592 6.77328 78.4592 9.05668C78.4592 11.3401 80.0212 12.6518 82.3763 12.6518H95.1126V12.8462L79.853 33.2267C78.9879 34.3684 78.6275 35.3158 78.6275 36.5304C78.6275 38.9595 80.3817 40.5142 83.0251 40.5142Z" fill="#35353A"/>
<path d="M120.457 40.9028C122.139 40.9028 123.076 40.1012 123.605 38.2308L130.502 14.085H130.742L137.663 38.2308C138.192 40.1255 139.105 40.9028 140.811 40.9028C142.445 40.9028 143.359 40.0769 143.887 38.2308L151.914 9.17814C152.106 8.52227 152.178 8.01215 152.178 7.52632C152.178 6.04453 151.12 5.07287 149.534 5.07287C148.141 5.07287 147.252 5.82591 146.891 7.33198L140.667 32.9109H140.475L133.674 7.74494C133.193 5.89879 132.256 5.07287 130.646 5.07287C128.988 5.07287 128.075 5.87449 127.57 7.81781L120.794 32.9109H120.601L114.353 7.33198C114.017 5.8502 113.152 5.07287 111.734 5.07287C110.148 5.07287 109.091 6.04453 109.091 7.52632C109.091 8.01215 109.163 8.52227 109.331 9.17814L117.381 38.2065C117.886 40.0769 118.799 40.9028 120.457 40.9028Z" fill="#35353A"/>
<path d="M162.359 40.9514C166.132 40.9514 169.015 39.2753 170.433 36.2632H170.601V38.3765C170.626 39.9798 171.659 40.9514 173.077 40.9514C174.543 40.9514 175.576 39.9312 175.576 38.3036V17.1458C175.576 15.4939 174.543 14.498 173.077 14.498C171.635 14.498 170.601 15.4939 170.601 17.1458V19.2105H170.433C168.991 16.2713 166.036 14.5466 162.359 14.5466C156.087 14.5466 151.954 19.7935 151.954 27.7368C151.954 35.7287 156.063 40.9514 162.359 40.9514ZM163.825 36.5061C159.788 36.5061 157.264 33.1781 157.264 27.7368C157.264 22.3441 159.788 18.9676 163.825 18.9676C167.862 18.9676 170.481 22.417 170.481 27.7368C170.481 33.1053 167.886 36.5061 163.825 36.5061Z" fill="#35353A"/>
<path d="M182.945 40.9757C184.459 40.9757 185.541 39.9312 185.541 38.2065V7.76923C185.541 6.04453 184.459 5 182.945 5C181.431 5 180.35 6.04453 180.35 7.76923V38.2065C180.35 39.9312 181.431 40.9757 182.945 40.9757Z" fill="#35353A"/>
<path d="M193.15 40.9757C194.664 40.9757 195.746 39.9312 195.746 38.2065V7.76923C195.746 6.04453 194.664 5 193.15 5C191.636 5 190.555 6.04453 190.555 7.76923V38.2065C190.555 39.9312 191.636 40.9757 193.15 40.9757Z" fill="#35353A"/>
<path d="M211.526 41C216.236 41 219.913 39.081 221.571 35.7287C221.787 35.2186 221.931 34.7328 221.931 34.3198C221.931 33.0081 221.018 32.1822 219.769 32.1822C219.024 32.1822 218.495 32.4494 217.942 33.1053C216.02 35.753 214.242 36.749 211.406 36.749C207.273 36.749 204.677 33.834 204.677 29.17V29.0486H219.961C221.571 29.0486 222.532 28.0769 222.532 26.3765C222.532 19.4049 217.894 14.498 211.166 14.498C204.004 14.498 199.439 19.7449 199.439 27.8583C199.439 36.1174 203.908 41 211.526 41ZM204.701 25.3806C204.966 21.3968 207.561 18.7247 211.142 18.7247C214.746 18.7247 217.221 21.3725 217.341 25.3806H204.701Z" fill="#35353A"/>
<path d="M227.571 34.3927C227.571 38.6194 229.733 40.7328 233.987 40.7328H234.251C236.798 40.7328 238 39.9312 238 38.3522C238 37.1134 237.255 36.5061 235.765 36.3603L235.357 36.336C233.482 36.1903 232.785 35.2672 232.785 33.2267V19.1134H235.741C237.087 19.1134 237.904 18.336 237.904 17.0486C237.904 15.7611 237.087 14.9595 235.741 14.9595H232.785V11.17C232.785 9.49393 231.752 8.37652 230.19 8.37652C228.604 8.37652 227.571 9.49393 227.571 11.17V14.9595H225.744C224.399 14.9595 223.581 15.7368 223.581 17.0486C223.581 18.336 224.399 19.1134 225.744 19.1134H227.571V34.3927Z" fill="#35353A"/>
<defs>
<linearGradient id="paint0_linear_1094_2160" x1="26.6123" y1="0" x2="26.6123" y2="46.0074" gradientUnits="userSpaceOnUse">
<stop stop-color="#87CD94"/>
<stop offset="1" stop-color="#98EDA7"/>
</linearGradient>
<linearGradient id="paint1_linear_1094_2160" x1="23.424" y1="9.65921" x2="23.4762" y2="43.8912" gradientUnits="userSpaceOnUse">
<stop stop-color="#78C787"/>
<stop offset="0.0001" stop-color="#78C787"/>
<stop offset="1" stop-color="#90DD9E" stop-opacity="0.5"/>
</linearGradient>
<linearGradient id="paint2_linear_1094_2160" x1="19.1905" y1="0.356781" x2="19.1905" y2="41.4575" gradientUnits="userSpaceOnUse">
<stop stop-color="#53A780"/>
<stop offset="1" stop-color="#78C787" stop-opacity="0.5"/>
</linearGradient>
<linearGradient id="paint3_linear_1094_2160" x1="14.7156" y1="0" x2="14.7156" y2="39.3532" gradientUnits="userSpaceOnUse">
<stop stop-color="#78C787"/>
<stop offset="1" stop-color="#B6FFC3"/>
</linearGradient>
</defs>
</svg>
