<svg width="256" height="70" viewBox="0 0 256 70" fill="none" xmlns="http://www.w3.org/2000/svg">
<g clip-path="url(#clip0_1094_2061)">
<path d="M87.6885 17.7827C88.074 17.7827 88.4749 17.8792 88.8924 18.0711C89.3098 18.263 89.6305 18.5362 89.8557 18.8893L102.092 37.5027L100.02 37.4062L112.496 18.8893C113.009 18.1524 113.668 17.7827 114.471 17.7827C115.113 17.7827 115.683 18.0158 116.181 18.4796C116.678 18.9447 116.927 19.5297 116.927 20.2349V49.0456C116.927 49.7508 116.702 50.3371 116.253 50.8009C115.802 51.2659 115.209 51.4978 114.47 51.4978C113.699 51.4978 113.081 51.2659 112.615 50.8009C112.149 50.3359 111.917 49.7508 111.917 49.0456V24.6614L113.458 24.998L102.86 41.1098C102.635 41.3982 102.346 41.6466 101.994 41.855C101.64 42.0646 101.271 42.1517 100.885 42.1199C100.532 42.1517 100.171 42.0646 99.8017 41.855C99.4326 41.6466 99.1343 41.3982 98.9102 41.1098L88.6978 25.2382L89.8545 23.3146V49.0456C89.8545 49.7508 89.6376 50.3371 89.2036 50.8009C88.7697 51.2659 88.199 51.4978 87.4939 51.4978C86.8194 51.4978 86.2653 51.2659 85.8325 50.8009C85.3986 50.3359 85.1816 49.7508 85.1816 49.0456V20.2361C85.1816 19.5627 85.4304 18.9859 85.928 18.5044C86.4268 18.024 87.014 17.7827 87.6885 17.7827Z" fill="#2C3ACF"/>
<path d="M144.821 25.8148C145.495 25.8148 146.065 26.0479 146.531 26.5117C146.995 26.9768 147.229 27.5618 147.229 28.267V49.0454C147.229 49.7506 146.995 50.3368 146.531 50.8007C146.065 51.2657 145.495 51.4976 144.821 51.4976C144.114 51.4976 143.536 51.2657 143.086 50.8007C142.636 50.3357 142.412 49.7506 142.412 49.0454V45.5819L143.375 45.7267C143.375 46.3036 143.142 46.9452 142.677 47.6504C142.211 48.3555 141.577 49.0372 140.774 49.6941C139.971 50.351 139.023 50.896 137.932 51.3293C136.84 51.7625 135.668 51.9791 134.416 51.9791C132.201 51.9791 130.209 51.4105 128.443 50.2721C126.676 49.1337 125.279 47.5715 124.252 45.5831C123.224 43.5959 122.711 41.3344 122.711 38.801C122.711 36.204 123.224 33.919 124.252 31.9471C125.279 29.9752 126.668 28.4283 128.419 27.3064C130.169 26.1845 132.12 25.6229 134.272 25.6229C135.653 25.6229 136.929 25.8478 138.102 26.2963C139.274 26.746 140.294 27.3229 141.161 28.028C142.027 28.7332 142.702 29.4796 143.184 30.2648C143.666 31.0512 143.907 31.7964 143.907 32.5016L142.414 32.6464V28.2694C142.414 27.596 142.638 27.0191 143.089 26.5376C143.536 26.055 144.113 25.8148 144.821 25.8148ZM134.994 47.5538C136.503 47.5538 137.827 47.1689 138.969 46.4001C140.109 45.6302 140.999 44.5801 141.642 43.2498C142.284 41.9195 142.605 40.4362 142.605 38.801C142.605 37.134 142.283 35.6436 141.642 34.3275C140.999 33.0137 140.108 31.9706 138.969 31.2007C137.829 30.4308 136.503 30.047 134.994 30.047C133.516 30.047 132.199 30.432 131.044 31.2007C129.887 31.9706 128.989 33.0125 128.346 34.3275C127.703 35.6425 127.383 37.134 127.383 38.801C127.383 40.4362 127.703 41.9195 128.346 43.2498C128.989 44.5801 129.879 45.6302 131.019 46.4001C132.159 47.17 133.483 47.5538 134.994 47.5538Z" fill="#2C3ACF"/>
<path d="M152.432 47.5538C152.143 47.1053 152.015 46.5849 152.047 45.9904C152.079 45.3971 152.416 44.892 153.058 44.4753C153.508 44.1869 153.982 44.0668 154.479 44.1151C154.977 44.1633 155.451 44.4117 155.9 44.8603C156.799 45.855 157.803 46.6402 158.91 47.2171C160.019 47.7939 161.36 48.0824 162.932 48.0824C163.575 48.0506 164.233 47.9458 164.908 47.7692C165.582 47.5938 166.16 47.2724 166.642 46.8074C167.124 46.3424 167.365 45.6608 167.365 44.7637C167.365 43.9632 167.108 43.3204 166.594 42.8401C166.08 42.3586 165.405 41.9666 164.57 41.6617C163.734 41.358 162.836 41.0766 161.872 40.82C160.844 40.5315 159.809 40.2113 158.765 39.8582C157.722 39.5062 156.782 39.0482 155.947 38.4878C155.111 37.9275 154.43 37.1976 153.9 36.2993C153.371 35.4023 153.106 34.2957 153.106 32.9807C153.106 31.4738 153.531 30.1753 154.383 29.0852C155.233 27.9951 156.341 27.1451 157.707 26.5365C159.071 25.9278 160.557 25.6229 162.163 25.6229C163.094 25.6229 164.073 25.743 165.101 25.9832C166.128 26.2233 167.124 26.6012 168.088 27.1133C169.051 27.6266 169.886 28.3 170.592 29.1335C170.913 29.5502 171.098 30.047 171.146 30.625C171.195 31.2019 170.929 31.7152 170.352 32.1637C169.966 32.4851 169.5 32.6287 168.954 32.5969C168.408 32.5651 167.958 32.3885 167.605 32.0683C166.995 31.2984 166.208 30.698 165.245 30.2648C164.281 29.8316 163.19 29.615 161.969 29.615C161.358 29.615 160.724 29.7032 160.066 29.8798C159.408 30.0564 158.854 30.3696 158.405 30.8181C157.954 31.2678 157.73 31.9247 157.73 32.79C157.73 33.5917 157.995 34.2333 158.525 34.7136C159.054 35.1951 159.754 35.5954 160.62 35.9156C161.487 36.2369 162.434 36.5254 163.462 36.7808C164.457 37.0375 165.444 37.3424 166.425 37.6944C167.404 38.0475 168.287 38.5043 169.075 39.0647C169.861 39.6262 170.504 40.3479 171.001 41.2285C171.499 42.1102 171.748 43.2239 171.748 44.5707C171.748 46.1423 171.29 47.4808 170.375 48.5862C169.46 49.6928 168.303 50.5346 166.906 51.1114C165.509 51.6883 164.04 51.9767 162.499 51.9767C160.669 51.9767 158.844 51.6471 157.031 50.9902C155.217 50.3368 153.685 49.1902 152.432 47.5538Z" fill="#2C3ACF"/>
<path d="M175.458 47.5538C175.169 47.1053 175.04 46.5849 175.072 45.9904C175.104 45.3971 175.441 44.892 176.084 44.4753C176.533 44.1869 177.007 44.0668 177.505 44.1151C178.002 44.1633 178.476 44.4117 178.926 44.8603C179.824 45.855 180.829 46.6402 181.936 47.2171C183.044 47.7939 184.385 48.0824 185.958 48.0824C186.6 48.0506 187.258 47.9458 187.933 47.7692C188.607 47.5938 189.185 47.2724 189.667 46.8074C190.15 46.3424 190.39 45.6608 190.39 44.7637C190.39 43.9632 190.133 43.3204 189.619 42.8401C189.105 42.3586 188.43 41.9666 187.596 41.6617C186.76 41.358 185.861 41.0766 184.898 40.82C183.87 40.5315 182.834 40.2113 181.791 39.8582C180.747 39.5062 179.807 39.0482 178.973 38.4878C178.137 37.9275 177.455 37.1976 176.926 36.2993C176.396 35.4023 176.131 34.2957 176.131 32.9807C176.131 31.4738 176.557 30.1753 177.408 29.0852C178.258 27.9951 179.367 27.1451 180.732 26.5365C182.096 25.9278 183.582 25.6229 185.188 25.6229C186.119 25.6229 187.098 25.743 188.126 25.9832C189.153 26.2233 190.15 26.6012 191.113 27.1133C192.076 27.6266 192.911 28.3 193.617 29.1335C193.938 29.5502 194.123 30.047 194.172 30.625C194.22 31.2019 193.955 31.7152 193.377 32.1637C192.991 32.4851 192.526 32.6287 191.98 32.5969C191.434 32.5651 190.983 32.3885 190.631 32.0683C190.02 31.2984 189.233 30.698 188.27 30.2648C187.307 29.8316 186.215 29.615 184.994 29.615C184.384 29.615 183.749 29.7032 183.091 29.8798C182.433 30.0564 181.879 30.3696 181.43 30.8181C180.98 31.2678 180.756 31.9247 180.756 32.79C180.756 33.5917 181.021 34.2333 181.55 34.7136C182.08 35.1951 182.779 35.5954 183.646 35.9156C184.512 36.2369 185.459 36.5254 186.487 36.7808C187.482 37.0375 188.469 37.3424 189.45 37.6944C190.429 38.0475 191.312 38.5043 192.1 39.0647C192.886 39.6262 193.529 40.3479 194.027 41.2285C194.524 42.1102 194.773 43.2239 194.773 44.5707C194.773 46.1423 194.315 47.4808 193.4 48.5862C192.485 49.6928 191.329 50.5346 189.931 51.1114C188.534 51.6883 187.065 51.9767 185.524 51.9767C183.694 51.9767 181.87 51.6471 180.056 50.9902C178.244 50.3368 176.71 49.1902 175.458 47.5538Z" fill="#2C3ACF"/>
<path d="M215.297 17.8308C218.251 17.8308 220.492 18.5525 222.017 19.9946C223.542 21.4379 224.306 23.5381 224.306 26.2952C224.306 27.7385 223.96 29.0452 223.271 30.2154C222.58 31.3868 221.568 32.3074 220.236 32.9808C218.902 33.6542 217.241 34.0073 215.249 34.0391L215.346 32.2591C216.406 32.2591 217.553 32.4039 218.79 32.6924C220.026 32.9808 221.191 33.4788 222.283 34.1839C223.374 34.8891 224.273 35.8427 224.98 37.0458C225.687 38.2478 226.04 39.7476 226.04 41.5429C226.04 43.4995 225.719 45.1264 225.077 46.4249C224.435 47.7234 223.583 48.7417 222.524 49.4787C221.464 50.2168 220.3 50.7372 219.032 51.0421C217.763 51.347 216.519 51.4988 215.299 51.4988H202.966C202.292 51.4988 201.714 51.2669 201.232 50.8019C200.749 50.3369 200.509 49.7518 200.509 49.0466V20.2842C200.509 19.579 200.749 18.9939 201.232 18.5289C201.713 18.0639 202.292 17.832 202.966 17.832H215.297V17.8308ZM214.623 22.5445H205.133L205.711 21.7746V32.1155L205.182 31.5869H214.72C215.876 31.5551 216.895 31.1619 217.778 30.4085C218.662 29.6551 219.102 28.5414 219.102 27.0663C219.102 25.5594 218.7 24.4293 217.899 23.6758C217.096 22.9224 216.004 22.5445 214.623 22.5445ZM214.96 36.3006H205.374L205.711 35.9639V47.3149L205.326 46.8817H215.249C216.919 46.8817 218.268 46.4414 219.296 45.5596C220.323 44.6779 220.837 43.3394 220.837 41.5441C220.837 40.0372 220.532 38.9153 219.922 38.1771C219.311 37.4402 218.557 36.9434 217.658 36.6856C216.758 36.4289 215.859 36.3006 214.96 36.3006Z" fill="#2C3ACF"/>
<path d="M233.555 22.8329C232.623 22.8329 231.949 22.6645 231.531 22.3278C231.114 21.9911 230.905 21.4225 230.905 20.6208V19.8509C230.905 19.0504 231.129 18.4888 231.58 18.1674C232.029 17.8472 232.703 17.6871 233.603 17.6871C234.567 17.6871 235.256 17.8555 235.675 18.1922C236.092 18.5289 236.301 19.0822 236.301 19.8509V20.6208C236.301 21.4555 236.084 22.0323 235.65 22.3526C235.216 22.6728 234.518 22.8329 233.555 22.8329ZM236.011 49.0454C236.011 49.7506 235.786 50.3368 235.336 50.8007C234.886 51.2657 234.308 51.4976 233.602 51.4976C232.928 51.4976 232.357 51.2657 231.892 50.8007C231.426 50.3357 231.194 49.7506 231.194 49.0454V28.4601C231.194 27.7549 231.426 27.1698 231.892 26.7048C232.357 26.2398 232.928 26.0079 233.602 26.0079C234.308 26.0079 234.886 26.241 235.336 26.7048C235.786 27.1698 236.011 27.7549 236.011 28.4601V49.0454Z" fill="#2C3ACF"/>
<path d="M242.177 26.4883H253.498C254.141 26.4883 254.678 26.7049 255.112 27.1381C255.546 27.5713 255.762 28.1081 255.762 28.7497C255.762 29.3595 255.545 29.8728 255.112 30.2884C254.678 30.7051 254.141 30.9135 253.498 30.9135H242.177C241.534 30.9135 240.997 30.6969 240.563 30.2649C240.129 29.8316 239.913 29.3113 239.913 28.7015C239.913 28.0599 240.13 27.5313 240.563 27.1145C240.997 26.6978 241.534 26.4883 242.177 26.4883ZM247.235 20.2359C247.942 20.2359 248.52 20.469 248.97 20.9328C249.419 21.3978 249.644 21.9829 249.644 22.6881V45.0051C249.644 45.582 249.741 46.047 249.933 46.4002C250.126 46.7533 250.391 46.9935 250.728 47.1218C251.065 47.2501 251.41 47.3137 251.763 47.3137C252.116 47.3137 252.43 47.2501 252.703 47.1218C252.976 46.9947 253.306 46.9299 253.691 46.9299C254.077 46.9299 254.429 47.1065 254.751 47.4585C255.072 47.8117 255.234 48.2932 255.234 48.9018C255.234 49.6717 254.816 50.2969 253.981 50.7772C253.147 51.2575 252.247 51.4988 251.283 51.4988C250.738 51.4988 250.095 51.4505 249.357 51.354C248.617 51.2575 247.903 51.0173 247.213 50.6324C246.522 50.2474 245.953 49.6305 245.503 48.7806C245.053 47.9318 244.829 46.7369 244.829 45.197V22.6881C244.829 21.9829 245.061 21.3978 245.527 20.9328C245.99 20.469 246.561 20.2359 247.235 20.2359Z" fill="#2C3ACF"/>
<path d="M34.9321 69.8426C54.2246 69.8426 69.8643 54.228 69.8643 34.9663C69.8643 15.7046 54.2246 0.0899658 34.9321 0.0899658C15.6397 0.0899658 0 15.7046 0 34.9663C0 54.228 15.6397 69.8426 34.9321 69.8426Z" fill="#2C3ACF"/>
<path d="M12.2389 46.0401C12.1149 46.0401 11.9882 46.0142 11.8687 45.959C11.4208 45.7542 11.2237 45.226 11.4289 44.7789L22.788 19.9948C22.9932 19.5477 23.5222 19.3509 23.9701 19.5557C24.4179 19.7606 24.6151 20.2888 24.4099 20.7359L13.0507 45.5199C12.9008 45.8468 12.5779 46.0401 12.2389 46.0401Z" fill="white"/>
<path d="M34.9601 46.0401C34.622 46.0401 34.2982 45.8468 34.1483 45.5199L22.7882 20.7359C22.583 20.2888 22.7802 19.7597 23.228 19.5557C23.6759 19.3509 24.2058 19.5477 24.4101 19.9948L35.7701 44.7789C35.9753 45.226 35.7782 45.755 35.3303 45.959C35.2099 46.0142 35.0841 46.0401 34.9601 46.0401Z" fill="white"/>
<path d="M34.9576 46.0401C34.8336 46.0401 34.707 46.0142 34.5874 45.959C34.1396 45.7541 33.9424 45.226 34.1476 44.7789L45.5077 19.9948C45.7129 19.5477 46.2419 19.3509 46.6897 19.5557C47.1376 19.7606 47.3347 20.2888 47.1295 20.7359L35.7694 45.5199C35.6196 45.8477 35.2966 46.0401 34.9576 46.0401Z" fill="white"/>
<path d="M57.6798 46.0401C57.3417 46.0401 57.0179 45.8468 56.868 45.5199L45.508 20.7359C45.3028 20.2888 45.4999 19.7597 45.9478 19.5557C46.3956 19.3509 46.9255 19.5477 47.1298 19.9948L58.4898 44.7789C58.695 45.226 58.4979 45.755 58.05 45.959C57.9296 46.0142 57.8038 46.0401 57.6798 46.0401Z" fill="white"/>
<path d="M12.1831 49.5672C14.0657 49.5672 15.5919 48.0897 15.5919 46.2672C15.5919 44.4447 14.0657 42.9672 12.1831 42.9672C10.3006 42.9672 8.77441 44.4447 8.77441 46.2672C8.77441 48.0897 10.3006 49.5672 12.1831 49.5672Z" fill="white"/>
<path d="M34.9322 49.5672C36.8148 49.5672 38.3409 48.0897 38.3409 46.2672C38.3409 44.4447 36.8148 42.9672 34.9322 42.9672C33.0496 42.9672 31.5234 44.4447 31.5234 46.2672C31.5234 48.0897 33.0496 49.5672 34.9322 49.5672Z" fill="white"/>
<path d="M57.6802 49.5672C59.5628 49.5672 61.0889 48.0897 61.0889 46.2672C61.0889 44.4447 59.5628 42.9672 57.6802 42.9672C55.7976 42.9672 54.2715 44.4447 54.2715 46.2672C54.2715 48.0897 55.7976 49.5672 57.6802 49.5672Z" fill="white"/>
</g>
<defs>
<clipPath id="clip0_1094_2061">
<rect width="256" height="70" fill="white"/>
</clipPath>
</defs>
</svg>
