<svg width="264" height="63" viewBox="0 0 264 63" fill="none" xmlns="http://www.w3.org/2000/svg">
<path d="M16.2265 20C20.6931 20 24.2814 20.8194 26.8604 22.7112C29.3133 24.5373 31 27.5014 31 31.6594C31 40.8652 23.1367 44.5831 17.161 44.5831C16.5934 44.5849 16.0265 44.5442 15.465 44.4614L11.1245 43.3236V53.1568C11.1245 58.448 11.5637 58.5745 17.3525 59.2066V61H0V59.2347C5.4104 58.6681 5.6627 58.2982 5.6627 53.0585V28.0071C5.6627 22.3881 4.96654 22.2663 0 21.7653V20H16.2265ZM11.1338 41.1181C12.592 41.7059 14.1557 41.9849 15.7266 41.9375C19.9316 41.9375 25.1598 39.7929 25.1598 31.8514C25.1598 24.9166 20.6324 22.1352 15.3482 22.1352C13.526 22.1352 12.2038 22.4536 11.8253 22.8938C11.3207 23.3339 11.1338 24.0925 11.1338 25.7923V41.1181Z" fill="#6E43D4"/>
<path d="M65 20H82.0944V21.7653C77.1002 22.2055 76.206 22.6456 76.206 28.2553V39.0999C77.4855 38.9735 78.96 37.9668 80.815 36.2015C84.4013 32.8582 88.6915 28.5737 91.6405 25.2959C93.543 23.1513 93.3671 22.3319 90.6131 21.9526L88.82 21.7653V20H104.383V21.7653C99.5789 22.3319 97.9142 22.6456 93.6239 26.9957C91.7213 28.8265 86.7081 33.6167 82.6081 37.5875C87.4739 43.2627 94.5847 51.3306 97.9141 54.8004C101.244 58.2701 102.014 58.7711 106 59.2113V61H95.7357C90.8081 55.5168 85.6189 49.4014 79.7923 42.7382C78.3179 40.9729 77.2287 40.8652 76.206 40.9074V52.8852C76.206 58.3731 76.7816 58.8133 82.0944 59.2534V61H65V59.2347C70.232 58.7945 70.76 58.3544 70.76 52.8665V28.2553C70.76 22.5847 70.3129 22.1399 65 21.7653V20Z" fill="#6E43D4"/>
<path d="M138.261 62V60.1867C142.401 59.6672 142.907 59.0227 142.018 56.5601C141.13 54.0974 139.92 50.7883 138.582 46.7191H124.837C123.816 49.605 122.862 52.1591 121.973 54.8141C120.555 59.0227 121.463 59.5374 126.7 60.1867V62H112V60.1867C116.008 59.6672 117.029 59.2247 119.255 53.3856L132.428 19.3896L134.465 19C138.473 30.0626 142.864 42.3133 146.872 53.5154C148.91 59.1526 149.481 59.6672 154 60.1867V62H138.261ZM131.899 27.4605C129.862 33.0303 127.702 38.9224 125.792 44.04H137.689L131.899 27.4605Z" fill="#6E43D4"/>
<path d="M181.427 29.7533C180.321 25.4789 178.501 21.2623 172.389 21.2623C167.319 21.2623 165.566 24.9591 165.566 28.3285C165.566 32.8002 168.425 35.0674 173.818 37.8544C181.62 41.8736 185 44.8532 185 51.0096C185 57.8159 179.085 63 170.699 63C166.798 63 163.418 61.8977 160.753 60.8628C159.989 57.6565 159.403 54.4105 159 51.1396L161.013 50.6197C162.312 54.9519 165.175 60.6029 171.935 60.6029C176.613 60.6029 179.477 57.3634 179.477 53.1516C179.477 48.16 176.811 46.148 171.09 43.0433C164.263 39.3514 160.429 36.2419 160.429 30.2106C160.429 24.4344 165.257 19 173.818 19C177.458 19 181.036 19.9627 182.402 20.2322C182.663 22.5668 182.919 25.1564 183.44 29.3779L181.427 29.7533Z" fill="#6E43D4"/>
<path d="M212.561 29.7389C211.502 25.4645 209.752 21.2479 203.876 21.2479C199.002 21.2479 197.313 24.9446 197.313 28.3141C197.313 32.7858 200.065 35.0529 205.25 37.84C212.751 41.8592 216 44.8387 216 50.9952C216 57.8014 210.323 63 202.251 63C198.501 63 195.252 61.8977 192.69 60.8628C191.953 57.6567 191.389 54.4106 191 51.1396L192.94 50.6197C194.189 54.9519 196.941 60.6029 203.44 60.6029C207.937 60.6029 210.69 57.3634 210.69 53.1516C210.69 48.16 208.123 46.148 202.627 43.0433C196.064 39.3514 192.379 36.2419 192.379 30.2106C192.379 24.4344 197.02 19 205.25 19C208.75 19 212.189 19.9627 213.498 20.2323C213.749 22.5668 213.999 25.1564 214.501 29.3779L212.561 29.7389Z" fill="#6E43D4"/>
<path d="M243.441 19C254.279 19 264 27.4891 264 40.3816C264 54.3376 254.736 63 243.064 63C230.883 63 222 53.5388 222 41.3441C221.981 29.7558 230.058 19 243.441 19ZM242.173 21.4062C235.067 21.3966 228.578 27.4891 228.578 39.6068C228.578 51.7245 235.048 60.5312 244.058 60.5312C251.734 60.5312 257.507 54.7034 257.507 42.1959C257.525 28.5912 250.485 21.3966 242.173 21.3966V21.4062Z" fill="#6E43D4"/>
<path d="M57 52.803C52.171 59.0243 46.0855 62 43.2029 62C40.6948 62 39.6304 59.5835 41.4684 52.1538C43.0107 46.0272 45.7159 36.0863 47.549 28.5666C47.9383 26.7992 47.8397 25.9653 47.2632 25.9653C46.2777 25.9653 43.4 27.8227 40.887 30.1445L40 28.4387C44.5383 23.7004 50.7371 19 53.8267 19C56.2412 19 56.3397 22.1604 54.6003 29.031C52.7672 35.7167 50.4464 45.0985 48.6872 51.6895C48.0072 54.196 48.0072 55.2195 48.6872 55.2195C49.6728 55.2195 52.2597 53.9165 55.64 50.4812L57 52.803Z" fill="#6E43D4"/>
<path d="M59 4.42298C59 7.40433 56.9608 9.99829 54.084 9.99829C53.5357 10.0147 52.99 9.91308 52.4814 9.69991C51.9728 9.48675 51.5123 9.16665 51.1291 8.7598C50.7459 8.35296 50.4482 7.86821 50.2548 7.33614C50.0614 6.80408 49.9766 6.23624 50.0055 5.66848C50.0055 3.16768 51.8603 0 55.2101 0C57.6989 0.00490353 59 2.02025 59 4.42298Z" fill="#C1E64C"/>
<path d="M55.5919 50.713C61.6133 43.4177 26.4268 45.0187 40.2416 29L41.1108 30.6803C31.1782 41 67.9388 39.2357 56.915 53L55.5919 50.713Z" fill="#C1E64C"/>
</svg>
